<svg xmlns="http://www.w3.org/2000/svg" xmlns:xlink="http://www.w3.org/1999/xlink" width="148" height="149" viewBox="0 0 148 149">
  <defs>
    <radialGradient id="radial-gradient" cx="0.5" cy="0.5" r="0.5" gradientUnits="objectBoundingBox">
      <stop offset="0" stop-color="#fff"/>
      <stop offset="1" stop-color="#e9e9e9"/>
    </radialGradient>
    <filter id="_51" x="0" y="0" width="148" height="149" filterUnits="userSpaceOnUse">
      <feOffset dx="3" dy="3" input="SourceAlpha"/>
      <feGaussianBlur stdDeviation="3" result="blur"/>
      <feFlood flood-opacity="0.161"/>
      <feComposite operator="in" in2="blur"/>
      <feComposite in="SourceGraphic"/>
    </filter>
  </defs>
  <g id="Grupo_1008727" data-name="Grupo 1008727" transform="translate(-573.934 -1914)">
    <g id="Grupo_1008510" data-name="Grupo 1008510" transform="translate(0.399 798.107)">
      <g transform="matrix(1, 0, 0, 1, 573.53, 1115.89)" filter="url(#_51)">
        <g id="_51-2" data-name="51" transform="translate(6 6)" stroke="#fff" stroke-width="3" fill="url(#radial-gradient)">
          <ellipse cx="65" cy="65.5" rx="65" ry="65.5" stroke="none"/>
          <ellipse cx="65" cy="65.5" rx="63.5" ry="64" fill="none"/>
        </g>
      </g>
    </g>
    <g id="Grupo_1008722" data-name="Grupo 1008722" transform="translate(608.934 1949)">
      <g id="Grupo_16598" data-name="Grupo 16598" transform="translate(1.176 1.176)">
        <g id="Grupo_16579" data-name="Grupo 16579" transform="translate(0)">
          <path id="Trazado_25843" data-name="Trazado 25843" d="M1205.328,831.593h-25.872a1.176,1.176,0,0,1-1.176-1.176V809.249a1.177,1.177,0,0,1,1.176-1.176h25.872a1.177,1.177,0,0,1,1.176,1.176v21.168A1.176,1.176,0,0,1,1205.328,831.593Z" transform="translate(-1178.279 -808.073)" fill="#e6e9ed"/>
        </g>
        <g id="Grupo_16580" data-name="Grupo 16580" transform="translate(7.056 14.113)">
          <path id="Trazado_25844" data-name="Trazado 25844" d="M1192.365,836.245h4.7v4.7h-4.7Z" transform="translate(-1192.365 -836.245)" fill="#b4dd7f"/>
        </g>
        <g id="Grupo_16581" data-name="Grupo 16581" transform="translate(11.76 9.408)">
          <path id="Trazado_25845" data-name="Trazado 25845" d="M1206.459,826.854v9.408h-4.7v-9.408Z" transform="translate(-1201.755 -826.854)" fill="#b4dd7f"/>
        </g>
        <g id="Grupo_16582" data-name="Grupo 16582" transform="translate(16.465 4.704)">
          <path id="Trazado_25846" data-name="Trazado 25846" d="M1212.651,828.777l-1.282,2.822-.071-.024h-.153V817.464h4.7v8.644a8.149,8.149,0,0,0-3.2,2.669Z" transform="translate(-1211.146 -817.464)" fill="#b4dd7f"/>
        </g>
        <g id="Grupo_16583" data-name="Grupo 16583" transform="translate(49.393 0)">
          <circle id="Elipse_931" data-name="Elipse 931" cx="10.584" cy="10.584" r="10.584" fill="#69d6f4"/>
        </g>
        <g id="Grupo_16584" data-name="Grupo 16584" transform="translate(16.465 8.233)">
          <path id="Trazado_25847" data-name="Trazado 25847" d="M1248.719,835.62a3.378,3.378,0,0,1,.059.694,22.108,22.108,0,0,1-.847,5.292c-.435,1.576-.859,2.74-.859,2.74l-.306.894-.012.012a4.639,4.639,0,0,0-3.786-1.929h-1.247v-1.987a5.056,5.056,0,0,0-5.045-5.069c-8.4,0-10.078,5.363-18.475,7.056h-1.176a4.7,4.7,0,0,0-3.9,2.081l-.271-1.047-1.235-4.563-.223-.811a8.064,8.064,0,0,1-.247-1.988,7.636,7.636,0,0,1,.224-1.882l1.282-2.822a8.149,8.149,0,0,1,3.2-2.669,6.205,6.205,0,0,1,.764-.33l6.292-2.258,4.963-1.776a12.872,12.872,0,0,1,4.316-.752,12.731,12.731,0,0,1,5.657,1.317,12.46,12.46,0,0,1,4.469,3.669l1.34,1.764a5.226,5.226,0,0,1,1.494.211c.082.036.176.059.258.094a5.061,5.061,0,0,1,3.316,4.057Z" transform="translate(-1211.146 -824.507)" fill="#b27946"/>
        </g>
        <g id="Grupo_16585" data-name="Grupo 16585" transform="translate(47.041 37.633)">
          <path id="Trazado_25848" data-name="Trazado 25848" d="M1284.332,906.717a17.635,17.635,0,0,0-10.267-8.7c-.447-.141-.905-.271-1.364-.376l-.223-.047a12.154,12.154,0,0,1-.294-2.634,11.76,11.76,0,1,1,12.148,11.76Z" transform="translate(-1272.183 -883.197)" fill="#fcd770"/>
        </g>
        <g id="Grupo_16586" data-name="Grupo 16586" transform="translate(9.408 52.451)">
          <path id="Trazado_25849" data-name="Trazado 25849" d="M1218.969,926.842l2.787,4.045h-24.7V929.57a17.657,17.657,0,0,1,12.231-16.794l4.669,6.774Z" transform="translate(-1197.06 -912.776)" fill="#838f9b"/>
        </g>
        <g id="Grupo_16587" data-name="Grupo 16587" transform="translate(36.457 52.451)">
          <path id="Trazado_25850" data-name="Trazado 25850" d="M1258.852,919.55l4.669-6.774a17.642,17.642,0,0,1,12.23,16.794v1.317h-24.7l2.787-4.045Z" transform="translate(-1251.055 -912.776)" fill="#838f9b"/>
        </g>
        <g id="Grupo_16588" data-name="Grupo 16588" transform="translate(30.577 54.097)">
          <path id="Trazado_25851" data-name="Trazado 25851" d="M1248.725,918.745l-2.352,4.375h-4.7l-2.352-4.375,4.7-2.682Z" transform="translate(-1239.317 -916.063)" fill="#fcd770"/>
        </g>
        <g id="Grupo_16589" data-name="Grupo 16589" transform="translate(31.318 61.153)">
          <path id="Trazado_25852" data-name="Trazado 25852" d="M1247.111,930.149l1.611,5.363-2.787,4.045h-2.352l-2.787-4.045,1.611-5.363Z" transform="translate(-1240.796 -930.149)" fill="#fcd770"/>
        </g>
        <g id="Grupo_16590" data-name="Grupo 16590" transform="translate(26.308 56.779)">
          <path id="Trazado_25853" data-name="Trazado 25853" d="M1235.064,921.416l2.352,4.375-1.611,5.363-5.01-7.291Z" transform="translate(-1230.795 -921.416)" fill="#ccd1d9"/>
        </g>
        <g id="Grupo_16591" data-name="Grupo 16591" transform="translate(37.633 56.779)">
          <path id="Trazado_25854" data-name="Trazado 25854" d="M1260.023,923.862l-5.009,7.291-1.612-5.363,2.353-4.375Z" transform="translate(-1253.402 -921.416)" fill="#ccd1d9"/>
        </g>
        <g id="Grupo_16592" data-name="Grupo 16592" transform="translate(35.281 50.569)">
          <path id="Trazado_25855" data-name="Trazado 25855" d="M1260.761,910.478l.223.047c.459.106.917.235,1.364.376l-4.669,6.774-4.269-2.446-4.7-2.682,5.88-3.528Z" transform="translate(-1248.707 -909.02)" fill="#e6e9ed"/>
        </g>
        <g id="Grupo_16593" data-name="Grupo 16593" transform="translate(21.639 50.569)">
          <path id="Trazado_25856" data-name="Trazado 25856" d="M1235.117,912.548l-4.7,2.682-4.269,2.446-4.669-6.774c.447-.141.906-.271,1.364-.376l6.4-1.505Z" transform="translate(-1221.475 -909.02)" fill="#e6e9ed"/>
        </g>
        <g id="Grupo_16594" data-name="Grupo 16594" transform="translate(29.4 45.947)">
          <path id="Trazado_25857" data-name="Trazado 25857" d="M1247.8,899.794l.929,4.622-5.88,3.528-5.88-3.528.929-4.622a11.755,11.755,0,0,0,9.9,0Z" transform="translate(-1236.969 -899.794)" fill="#f0d0b4"/>
        </g>
        <g id="Grupo_16595" data-name="Grupo 16595" transform="translate(46.982 27.049)">
          <path id="Trazado_25858" data-name="Trazado 25858" d="M1273.372,862.068a4.727,4.727,0,0,1,4.7,4.7,4.7,4.7,0,0,1-4.7,4.7h-1.247l-.059-.012c.035-.412.059-.823.059-1.235v-8.162h1.247Z" transform="translate(-1272.066 -862.068)" fill="#f0d0b4"/>
        </g>
        <g id="Grupo_16596" data-name="Grupo 16596" transform="translate(17.64 27.049)">
          <path id="Trazado_25859" data-name="Trazado 25859" d="M1219.373,862.068v8.162c0,.423.023.835.059,1.246H1218.2a4.7,4.7,0,0,1,0-9.408h1.176Z" transform="translate(-1213.493 -862.068)" fill="#f0d0b4"/>
        </g>
        <g id="Grupo_16597" data-name="Grupo 16597" transform="translate(23.52 19.993)">
          <path id="Trazado_25860" data-name="Trazado 25860" d="M1225.29,864.447c-.036-.412-.059-.823-.059-1.246v-8.162c8.4-1.693,10.079-7.056,18.476-7.056a5.056,5.056,0,0,1,5.045,5.068V863.2c0,.411-.024.823-.059,1.235a11.76,11.76,0,0,1-23.4.011Z" transform="translate(-1225.231 -847.983)" fill="#f0d0b4"/>
        </g>
      </g>
      <g id="Grupo_16599" data-name="Grupo 16599" transform="translate(0 0)">
        <circle id="Elipse_932" data-name="Elipse 932" cx="1.176" cy="1.176" r="1.176" transform="translate(41.161 31.752)" fill="#00223d"/>
        <circle id="Elipse_933" data-name="Elipse 933" cx="1.176" cy="1.176" r="1.176" transform="translate(29.4 31.752)" fill="#00223d"/>
        <path id="Trazado_25861" data-name="Trazado 25861" d="M1248.657,881.318l.178-.356-2.1-1.051-.177.356a4.282,4.282,0,0,1-7.663,0l-.18-.356-2.1,1.052.177.356a6.636,6.636,0,0,0,11.872,0Z" transform="translate(-1206.213 -842.748)" fill="#00223d"/>
        <path id="Trazado_25862" data-name="Trazado 25862" d="M1235.909,843.359a12.951,12.951,0,0,0-12.936,12.936c0,.364.03.726.061,1.089l-3.76-.884-.6-3.026a13.035,13.035,0,0,0,6.422-8.939h.3a5.887,5.887,0,0,0,5.88-5.88,5.81,5.81,0,0,0-.8-2.9l.124-.37a33.231,33.231,0,0,0,1.717-7.164,11.912,11.912,0,1,0-6.855-9.048,13.92,13.92,0,0,0-15.563-4.389l-3.389,1.216v-7.916a2.355,2.355,0,0,0-2.352-2.352h-25.872a2.354,2.354,0,0,0-2.352,2.352v21.168a2.354,2.354,0,0,0,2.352,2.352h14.858l1,3.675.154.615a5.813,5.813,0,0,0-.723,2.766,5.887,5.887,0,0,0,5.88,5.88h.234a13.036,13.036,0,0,0,6.422,8.939l-.6,3.026-5.657,1.332a18.743,18.743,0,0,0-14.507,18.315v2.493h54.1v-2.493a18.845,18.845,0,0,0-1.4-7.108,12.928,12.928,0,0,0-2.132-25.68Zm-11.791,16.7-3.108,4.516-6.3-3.6,3.749-2.25Zm-11.73,2.314.014-.008,3.109,1.776-1.473,2.741h-3.3l-1.474-2.741,3.108-1.776Zm-5.165,2.935,1.546,2.879-.764,2.547-2.9-4.215Zm2.493,7.91,1.195-3.984h2.954l1.195,3.984-2.115,3.072h-1.115Zm7.055-2.485-.764-2.547,1.546-2.878,2.118,1.21Zm8.621-28.548h-.071c0-.024,0-.048,0-.074v-6.982h.068a3.528,3.528,0,1,1,0,7.056Zm8.164-24.7a11.514,11.514,0,0,1,.583-3.528h5.892a10.981,10.981,0,0,1,0,7.056h-5.892A11.535,11.535,0,0,1,1233.557,817.486Zm1.58-5.88a17.828,17.828,0,0,1,1.951-2.941,17.639,17.639,0,0,1,1.953,2.941Zm3.9,11.76a17.9,17.9,0,0,1-1.951,2.941,17.551,17.551,0,0,1-1.953-2.941Zm-4.786,3.087a9.352,9.352,0,0,1-2.06-.961,6.143,6.143,0,0,0-.977-2.125h1.307a19.06,19.06,0,0,0,1.731,3.086Zm5.673,0a19.044,19.044,0,0,0,1.733-3.089h2.764a9.436,9.436,0,0,1-4.5,3.089Zm5.88-5.441h-3.311a13.334,13.334,0,0,0,0-7.056h3.311a9.329,9.329,0,0,1,0,7.056Zm-1.383-9.408h-2.764a18.843,18.843,0,0,0-1.733-3.089,9.433,9.433,0,0,1,4.5,3.089Zm-10.168-3.089a18.942,18.942,0,0,0-1.734,3.089h-2.763a9.434,9.434,0,0,1,4.5-3.089Zm-5.88,5.441h3.31a13.344,13.344,0,0,0,0,7.056h-3.292a9.25,9.25,0,0,1-.711-3.528A9.343,9.343,0,0,1,1228.37,813.958Zm-17.678,3.034a11.591,11.591,0,0,1,13.108,3.844l1.69,2.224h.583a3.926,3.926,0,0,1,3.956,3.886,25.367,25.367,0,0,1-1.368,6.825,5.834,5.834,0,0,0-3.268-1h-.068v-.81a6.238,6.238,0,0,0-6.217-6.247c-4.945,0-7.818,1.793-10.6,3.529a22.811,22.811,0,0,1-8.017,3.527h-1.042a5.85,5.85,0,0,0-3.3,1.013l-1.2-4.466a6.916,6.916,0,0,1-.213-1.7,7.048,7.048,0,0,1,4.69-6.595Zm-23,7.55h-2.352V822.19h2.352Zm9.408-4.993a9.439,9.439,0,0,0-2.352,1.94v-8.707h2.352Zm-4.7,4.993h-2.352v-7.056h2.352Zm-14.112-16.464h25.872v8.759l-4.7,1.688V810.43H1192.4v4.7h-4.7v4.7h-4.7v7.056h9.466c-.019.243-.058.482-.058.729a9.381,9.381,0,0,0,.161,1.623h-14.273Zm21.168,34.1a3.528,3.528,0,1,1,0-7.056v6.983c0,.025,0,.048,0,.074h0Zm2.352-.073v-7.217a25.78,25.78,0,0,0,7.952-3.649c2.727-1.7,5.082-3.173,9.352-3.173a3.885,3.885,0,0,1,3.865,3.9V842.11a10.585,10.585,0,1,1-21.169,0Zm10.584,13.009a12.828,12.828,0,0,0,4.076-.671l.488,2.441-4.564,2.739-4.564-2.739.488-2.441A12.829,12.829,0,0,0,1212.388,855.119Zm-6.075,3.606,3.749,2.25-6.3,3.6-3.108-4.516Zm-18.621,17.421a16.382,16.382,0,0,1,10.6-15.373l10.678,15.514h-21.282Zm49.393.141H1215.8l10.68-15.514a16.382,16.382,0,0,1,10.6,15.373Zm-.112-9.47a18.518,18.518,0,0,0-1.531-2.29h1.643v-2.352h2.352v-3.528a3.532,3.532,0,0,0-3.528-3.528,1.177,1.177,0,0,1-1.176-1.176v-1.176h1.176a1.177,1.177,0,0,1,1.176,1.176v1.176h2.352v-1.176a3.523,3.523,0,0,0-2.352-3.311v-2.569h-2.352v2.352h-2.352v3.528a3.532,3.532,0,0,0,3.528,3.528,1.177,1.177,0,0,1,1.176,1.176v1.176h-1.176a1.177,1.177,0,0,1-1.176-1.176v-1.176h-2.352v1.176a3.524,3.524,0,0,0,2.352,3.312v1.734a18.757,18.757,0,0,0-9.258-5.709,10.577,10.577,0,1,1,11.5,8.833Z" transform="translate(-1175.932 -805.726)" fill="#00223d"/>
      </g>
    </g>
  </g>
</svg>
