<svg xmlns="http://www.w3.org/2000/svg" xmlns:xlink="http://www.w3.org/1999/xlink" width="148" height="149" viewBox="0 0 148 149">
  <defs>
    <radialGradient id="radial-gradient" cx="0.5" cy="0.5" r="0.5" gradientUnits="objectBoundingBox">
      <stop offset="0" stop-color="#fff"/>
      <stop offset="1" stop-color="#e9e9e9"/>
    </radialGradient>
    <filter id="_51" x="0" y="0" width="148" height="149" filterUnits="userSpaceOnUse">
      <feOffset dx="3" dy="3" input="SourceAlpha"/>
      <feGaussianBlur stdDeviation="3" result="blur"/>
      <feFlood flood-opacity="0.161"/>
      <feComposite operator="in" in2="blur"/>
      <feComposite in="SourceGraphic"/>
    </filter>
  </defs>
  <g id="Grupo_1008726" data-name="Grupo 1008726" transform="translate(-883.934 -1914)">
    <g id="Grupo_1008511" data-name="Grupo 1008511" transform="translate(0.399 798.107)">
      <g transform="matrix(1, 0, 0, 1, 883.53, 1115.89)" filter="url(#_51)">
        <g id="_51-2" data-name="51" transform="translate(6 6)" stroke="#fff" stroke-width="3" fill="url(#radial-gradient)">
          <ellipse cx="65" cy="65.5" rx="65" ry="65.5" stroke="none"/>
          <ellipse cx="65" cy="65.5" rx="63.5" ry="64" fill="none"/>
        </g>
      </g>
    </g>
    <g id="Grupo_1008723" data-name="Grupo 1008723" transform="translate(918.934 1949)">
      <path id="Trazado_25863" data-name="Trazado 25863" d="M1368.016,938.854h-12.151l.683-5.464a4.861,4.861,0,0,1,4.823-4.258h1.785a4.861,4.861,0,0,1,4.86,4.86h0Z" transform="translate(-1343.709 -927.918)" fill="#fcb442"/>
      <path id="Trazado_25864" data-name="Trazado 25864" d="M1424.2,938.854h-12.152v-4.861a4.861,4.861,0,0,1,4.861-4.86h1.785a4.86,4.86,0,0,1,4.823,4.258Z" transform="translate(-1363.44 -927.918)" fill="#fcb442"/>
      <path id="Trazado_25865" data-name="Trazado 25865" d="M1356.021,940.37H1354.7a9.721,9.721,0,0,0-9.619,8.314l-6.074,41.508h26.734v-40.1A9.721,9.721,0,0,0,1356.021,940.37Z" transform="translate(-1337.79 -931.864)" fill="#ce3536"/>
      <path id="Trazado_25866" data-name="Trazado 25866" d="M1365.743,973.3v26.758h-26.734l3.908-26.712C1351.066,966.748,1358.683,966.938,1365.743,973.3Z" transform="translate(-1337.79 -941.729)" fill="#e74444"/>
      <path id="Trazado_25867" data-name="Trazado 25867" d="M1416.154,940.37h1.319a9.722,9.722,0,0,1,9.619,8.314l6.074,41.508h-26.733v-40.1a9.721,9.721,0,0,1,9.721-9.721Z" transform="translate(-1361.467 -931.864)" fill="#ce3536"/>
      <path id="Trazado_25868" data-name="Trazado 25868" d="M1433.167,1000.058h-26.733v-26.5c8.126-6.715,15.727-6.694,22.776-.539Z" transform="translate(-1361.467 -941.729)" fill="#e74444"/>
      <circle id="Elipse_934" data-name="Elipse 934" cx="13.367" cy="13.367" r="13.367" transform="translate(1.219 44.962)" fill="#fcb442"/>
      <circle id="Elipse_935" data-name="Elipse 935" cx="8.506" cy="8.506" r="8.506" transform="translate(6.08 49.822)" fill="#fae8d8"/>
      <circle id="Elipse_936" data-name="Elipse 936" cx="13.367" cy="13.367" r="13.367" transform="translate(44.966 44.962)" fill="#fcb442"/>
      <circle id="Elipse_937" data-name="Elipse 937" cx="8.506" cy="8.506" r="8.506" transform="translate(49.826 49.822)" fill="#fae8d8"/>
      <path id="Trazado_25869" data-name="Trazado 25869" d="M1380.212,990.938h17.013v17.012h-17.013Z" transform="translate(-1352.259 -949.622)" fill="#fcb442"/>
      <circle id="Elipse_938" data-name="Elipse 938" cx="3.646" cy="3.646" r="3.646" transform="translate(32.814 46.177)" fill="#ce3536"/>
      <path id="Trazado_25870" data-name="Trazado 25870" d="M1380.212,968.463h17.013v14.582h-17.013Z" transform="translate(-1352.259 -941.729)" fill="#fde575"/>
      <path id="Trazado_25871" data-name="Trazado 25871" d="M1403.957,943.9a10.9,10.9,0,0,0-5.093-7.729l-.45-3.593a6.084,6.084,0,0,0-6.028-5.322H1390.6a6.083,6.083,0,0,0-6.077,6.076v4.009a10.907,10.907,0,0,0-3.645,8.143v7.291H1366.3v-7.291a10.886,10.886,0,0,0-3.646-8.153v-4a6.082,6.082,0,0,0-6.076-6.076h-1.785a6.084,6.084,0,0,0-6.028,5.322l-.45,3.589a10.993,10.993,0,0,0-5.094,7.733l-5.5,37.593a14.582,14.582,0,1,0,28.528,5.307h14.684a14.582,14.582,0,1,0,28.528-5.307Zm-37.66,25.888h14.583v14.583H1366.3Zm17.012-10.12c7.264-5.794,13.962-5.949,20.449-.474l2.441,16.536a14.565,14.565,0,0,0-22.889,1.805Zm3.646-26.335a3.65,3.65,0,0,1,3.646-3.645h1.785a3.65,3.65,0,0,1,3.617,3.193l.267,2.129a10.913,10.913,0,0,0-3.135-.462h-1.318a10.859,10.859,0,0,0-4.861,1.144Zm4.861,3.646h1.318a8.554,8.554,0,0,1,8.417,7.274l1.7,11.515a16.144,16.144,0,0,0-9.386-2.99,19.012,19.012,0,0,0-10.556,3.854V945.487a8.516,8.516,0,0,1,8.507-8.506Zm-10.937,18.228v12.152H1366.3V955.209Zm-26.089-25.518h1.785a3.65,3.65,0,0,1,3.646,3.645v2.356a10.978,10.978,0,0,0-4.861-1.141h-1.318a10.985,10.985,0,0,0-3.135.46l.266-2.128A3.65,3.65,0,0,1,1354.792,929.69Zm-4.772,8.3a8.534,8.534,0,0,1,4.023-1.01h1.318a8.5,8.5,0,0,1,8.506,8.5v10.795a16.6,16.6,0,0,0-9.783-3.5h-.069a18.431,18.431,0,0,0-10.152,3.41l1.762-11.933A8.548,8.548,0,0,1,1350.02,937.991Zm-6.651,21.553c7.282-5.729,14-5.783,20.5-.164v18.159a14.566,14.566,0,0,0-22.889-1.805Zm8.347,38.2a12.152,12.152,0,1,1,12.152-12.152A12.152,12.152,0,0,1,1351.715,997.74Zm43.747,0a12.152,12.152,0,1,1,12.152-12.152A12.152,12.152,0,0,1,1395.462,997.74Z" transform="translate(-1337.13 -927.26)" fill="#00223d"/>
      <path id="Trazado_25872" data-name="Trazado 25872" d="M1354.348,1002.175a9.721,9.721,0,1,0,9.722,9.721A9.721,9.721,0,0,0,1354.348,1002.175Zm0,17.013a7.291,7.291,0,1,1,7.292-7.292A7.291,7.291,0,0,1,1354.348,1019.188Z" transform="translate(-1339.763 -953.568)" fill="#00223d"/>
      <path id="Trazado_25873" data-name="Trazado 25873" d="M1421.772,1002.175a9.721,9.721,0,1,0,9.721,9.721A9.721,9.721,0,0,0,1421.772,1002.175Zm0,17.013a7.291,7.291,0,1,1,7.292-7.292A7.291,7.291,0,0,1,1421.772,1019.188Z" transform="translate(-1363.44 -953.568)" fill="#00223d"/>
      <path id="Trazado_25874" data-name="Trazado 25874" d="M1390.692,996.557a4.861,4.861,0,1,0,4.861,4.86A4.861,4.861,0,0,0,1390.692,996.557Zm0,7.291a2.431,2.431,0,1,1,2.43-2.431A2.43,2.43,0,0,1,1390.692,1003.848Z" transform="translate(-1354.232 -951.595)" fill="#00223d"/>
    </g>
  </g>
</svg>
