<svg xmlns="http://www.w3.org/2000/svg" width="70" height="70" viewBox="0 0 70 70">
  <g id="Grupo_1011017" data-name="Grupo 1011017" transform="translate(-517 -8951)">
    <g id="Elipse_5634" data-name="Elipse 5634" transform="translate(517 8951)" fill="#fff" stroke="#296725" stroke-width="2">
      <circle cx="35" cy="35" r="35" stroke="none"/>
      <circle cx="35" cy="35" r="34" fill="none"/>
    </g>
    <path id="Trazado_716401" data-name="Trazado 716401" d="M26.4,34V11.25H34.57q4.391,0,6.68,1.609a5.355,5.355,0,0,1,2.289,4.672,5.413,5.413,0,0,1-.812,3.016,4.735,4.735,0,0,1-2.391,1.844,4.8,4.8,0,0,1,2.734,1.75,5.088,5.088,0,0,1,.953,3.125,6.024,6.024,0,0,1-2.117,5.023Q39.789,33.969,35.633,34Zm5.484-9.672v5.453h3.594a3.418,3.418,0,0,0,2.281-.68,2.379,2.379,0,0,0,.8-1.914,2.522,2.522,0,0,0-2.828-2.859Zm0-3.594h2.859a4.062,4.062,0,0,0,2.563-.658,2.335,2.335,0,0,0,.766-1.9,2.452,2.452,0,0,0-.828-2.077,4.433,4.433,0,0,0-2.672-.635H31.883Z" transform="translate(517 8967.244)" fill="#296725"/>
  </g>
</svg>
