<svg xmlns="http://www.w3.org/2000/svg" width="70" height="70" viewBox="0 0 70 70">
  <g id="Grupo_1011018" data-name="Grupo 1011018" transform="translate(-768 -8951)">
    <g id="Elipse_5634" data-name="Elipse 5634" transform="translate(768 8951)" fill="#fff" stroke="#296725" stroke-width="2">
      <circle cx="35" cy="35" r="35" stroke="none"/>
      <circle cx="35" cy="35" r="34" fill="none"/>
    </g>
    <path id="Trazado_716402" data-name="Trazado 716402" d="M44.625,26.3a8.308,8.308,0,0,1-1.281,4.2,7.733,7.733,0,0,1-3.289,2.82,11.2,11.2,0,0,1-4.836,1,8.934,8.934,0,0,1-7.062-2.922q-2.578-2.922-2.578-8.25V22.016a13.771,13.771,0,0,1,1.164-5.852,8.82,8.82,0,0,1,3.352-3.875,9.351,9.351,0,0,1,5.063-1.367,9.806,9.806,0,0,1,6.656,2.18,8.612,8.612,0,0,1,2.859,6.008H39.2a4.075,4.075,0,0,0-1.047-2.984,4.306,4.306,0,0,0-3-.906,3.276,3.276,0,0,0-3,1.531,9.841,9.841,0,0,0-1,4.891V23.25a10.89,10.89,0,0,0,.914,5.2,3.345,3.345,0,0,0,3.148,1.563,4.211,4.211,0,0,0,2.891-.891A3.78,3.78,0,0,0,39.172,26.3Z" transform="translate(768 8967.244)" fill="#296725"/>
  </g>
</svg>
