<svg xmlns="http://www.w3.org/2000/svg" width="66.197" height="84.349" viewBox="0 0 66.197 84.349">
  <g id="Grupo_1008380" data-name="Grupo 1008380" transform="translate(-55.714 -201.404)">
    <g id="Grupo_80366" data-name="Grupo 80366" transform="translate(57.619 201.404)">
      <path id="Trazado_113924" data-name="Trazado 113924" d="M88.362,201.413a32.136,32.136,0,0,0-25.329,50.9l-.009,0,.313.426.045.06,22.761,30.959a4.886,4.886,0,0,0,7.991-.167l20.573-30.586c3.893-5.937,6.563-12.144,6.563-19.459A32.146,32.146,0,0,0,88.362,201.413Zm.765,55.513a24.167,24.167,0,1,1,24.167-24.167A24.169,24.169,0,0,1,89.127,256.926Z" transform="translate(-56.98 -201.404)" fill="#ff725e"/>
    </g>
    <g id="Grupo_80367" data-name="Grupo 80367" transform="translate(57.619 201.404)" opacity="0.3">
      <path id="Trazado_113925" data-name="Trazado 113925" d="M88.362,201.413a32.136,32.136,0,0,0-25.329,50.9l-.009,0,.313.426.045.06,22.761,30.959a4.886,4.886,0,0,0,7.991-.167l20.573-30.586c3.893-5.937,6.563-12.144,6.563-19.459A32.146,32.146,0,0,0,88.362,201.413Zm.765,55.513a24.167,24.167,0,1,1,24.167-24.167A24.169,24.169,0,0,1,89.127,256.926Z" transform="translate(-56.98 -201.404)"/>
    </g>
    <g id="Grupo_80368" data-name="Grupo 80368" transform="translate(55.714 201.404)">
      <path id="Trazado_113926" data-name="Trazado 113926" d="M87.1,201.413a32.136,32.136,0,0,0-25.329,50.9l-.009,0,.313.426.045.06,22.761,30.959a4.886,4.886,0,0,0,7.991-.167l20.573-30.586c3.893-5.937,6.563-12.144,6.563-19.459A32.145,32.145,0,0,0,87.1,201.413Zm.765,51.156a18.3,18.3,0,1,1,18.3-18.3A18.3,18.3,0,0,1,87.861,252.569Z" transform="translate(-55.714 -201.404)" fill="#ffa686"/>
    </g>
  </g>
</svg>
