<svg xmlns="http://www.w3.org/2000/svg" width="41.287" height="52.608" viewBox="0 0 41.287 52.608">
  <g id="Grupo_80369" data-name="Grupo 80369" transform="translate(-55.714 -201.404)">
    <g id="Grupo_80366" data-name="Grupo 80366" transform="translate(56.902 201.404)">
      <path id="Trazado_113924" data-name="Trazado 113924" d="M76.553,201.41a20.043,20.043,0,0,0-15.8,31.746l-.006,0,.2.266.028.038,14.2,19.309a3.048,3.048,0,0,0,4.984-.1L92.985,233.59c2.428-3.7,4.093-7.574,4.093-12.137A20.049,20.049,0,0,0,76.553,201.41Zm.477,34.623A15.073,15.073,0,1,1,92.1,220.96,15.074,15.074,0,0,1,77.03,236.033Z" transform="translate(-56.98 -201.404)" fill="#ff725e"/>
    </g>
    <g id="Grupo_80367" data-name="Grupo 80367" transform="translate(56.902 201.404)" opacity="0.3">
      <path id="Trazado_113925" data-name="Trazado 113925" d="M76.553,201.41a20.043,20.043,0,0,0-15.8,31.746l-.006,0,.2.266.028.038,14.2,19.309a3.048,3.048,0,0,0,4.984-.1L92.985,233.59c2.428-3.7,4.093-7.574,4.093-12.137A20.049,20.049,0,0,0,76.553,201.41Zm.477,34.623A15.073,15.073,0,1,1,92.1,220.96,15.074,15.074,0,0,1,77.03,236.033Z" transform="translate(-56.98 -201.404)"/>
    </g>
    <g id="Grupo_80368" data-name="Grupo 80368" transform="translate(55.714 201.404)">
      <path id="Trazado_113926" data-name="Trazado 113926" d="M75.287,201.41a20.043,20.043,0,0,0-15.8,31.746l-.006,0,.2.266.028.038L73.9,252.77a3.048,3.048,0,0,0,4.984-.1L91.719,233.59c2.428-3.7,4.093-7.574,4.093-12.137A20.049,20.049,0,0,0,75.287,201.41Zm.477,31.906A11.415,11.415,0,1,1,87.179,221.9,11.416,11.416,0,0,1,75.764,233.315Z" transform="translate(-55.714 -201.404)" fill="#ffa686"/>
    </g>
  </g>
</svg>
