<svg xmlns="http://www.w3.org/2000/svg" width="70" height="70" viewBox="0 0 70 70">
  <g id="Grupo_1011019" data-name="Grupo 1011019" transform="translate(-1020 -8951)">
    <g id="Elipse_5634" data-name="Elipse 5634" transform="translate(1020 8951)" fill="#fff" stroke="#296725" stroke-width="2">
      <circle cx="35" cy="35" r="35" stroke="none"/>
      <circle cx="35" cy="35" r="34" fill="none"/>
    </g>
    <path id="Trazado_716403" data-name="Trazado 716403" d="M26.375,34V11.25H33.7a10.78,10.78,0,0,1,5.422,1.367,9.61,9.61,0,0,1,3.758,3.859,11.652,11.652,0,0,1,1.367,5.586v1.047a11.72,11.72,0,0,1-1.32,5.6,9.652,9.652,0,0,1-3.719,3.875A10.543,10.543,0,0,1,33.859,34Zm5.484-18.516v14.3h1.906a4.266,4.266,0,0,0,3.625-1.68,8.231,8.231,0,0,0,1.266-4.992v-.984a8.164,8.164,0,0,0-1.266-4.969A4.341,4.341,0,0,0,33.7,15.484Z" transform="translate(1020 8967.244)" fill="#296725"/>
  </g>
</svg>
