<svg xmlns="http://www.w3.org/2000/svg" xmlns:xlink="http://www.w3.org/1999/xlink" width="148" height="149" viewBox="0 0 148 149">
  <defs>
    <radialGradient id="radial-gradient" cx="0.5" cy="0.5" r="0.5" gradientUnits="objectBoundingBox">
      <stop offset="0" stop-color="#fff"/>
      <stop offset="1" stop-color="#e9e9e9"/>
    </radialGradient>
    <filter id="_51" x="0" y="0" width="148" height="149" filterUnits="userSpaceOnUse">
      <feOffset dx="3" dy="3" input="SourceAlpha"/>
      <feGaussianBlur stdDeviation="3" result="blur"/>
      <feFlood flood-opacity="0.161"/>
      <feComposite operator="in" in2="blur"/>
      <feComposite in="SourceGraphic"/>
    </filter>
  </defs>
  <g id="Grupo_1008725" data-name="Grupo 1008725" transform="translate(-1193.934 -1914)">
    <g id="Grupo_1008512" data-name="Grupo 1008512" transform="translate(0.399 798.107)">
      <g transform="matrix(1, 0, 0, 1, 1193.53, 1115.89)" filter="url(#_51)">
        <g id="_51-2" data-name="51" transform="translate(6 6)" stroke="#fff" stroke-width="3" fill="url(#radial-gradient)">
          <ellipse cx="65" cy="65.5" rx="65" ry="65.5" stroke="none"/>
          <ellipse cx="65" cy="65.5" rx="63.5" ry="64" fill="none"/>
        </g>
      </g>
    </g>
    <g id="Grupo_1008724" data-name="Grupo 1008724" transform="translate(1234.934 1949)">
      <g id="Grupo_16603" data-name="Grupo 16603" transform="translate(1.059 1.059)">
        <g id="Grupo_16602" data-name="Grupo 16602" transform="translate(0 6.358)">
          <path id="Trazado_25875" data-name="Trazado 25875" d="M1420.088,804.752a2.18,2.18,0,0,1,2.18,2.18v59.637a2.18,2.18,0,0,1-2.18,2.18H1365.76a2.18,2.18,0,0,1-2.181-2.18V806.932a2.18,2.18,0,0,1,2.181-2.18Z" transform="translate(-1363.58 -804.752)" fill="#b5adb6"/>
          <path id="Trazado_25876" data-name="Trazado 25876" d="M1376.561,862.362a2.181,2.181,0,0,1-2.181-2.18V804.752h-8.62a2.18,2.18,0,0,0-2.181,2.18v59.637a2.18,2.18,0,0,0,2.181,2.18h54.327a2.18,2.18,0,0,0,2.18-2.18v-4.207Z" transform="translate(-1363.58 -804.752)" fill="#a79ba7"/>
          <path id="Trazado_25877" data-name="Trazado 25877" d="M1378.531,804.752v6.532a5.437,5.437,0,0,0,5.431,5.431h24.828a5.436,5.436,0,0,0,5.431-5.43v-6.533Z" transform="translate(-1367.032 -804.752)" fill="#a79ba7"/>
          <path id="Trazado_25878" data-name="Trazado 25878" d="M1419.3,811.389v53.268a1.128,1.128,0,0,1-1.128,1.128h-47.959a1.127,1.127,0,0,1-1.127-1.128V811.389a1.127,1.127,0,0,1,1.127-1.128h47.959a1.127,1.127,0,0,1,1.128,1.128Z" transform="translate(-1364.852 -806.024)" fill="#efedef"/>
          <path id="Trazado_25879" data-name="Trazado 25879" d="M1378.531,810.261v2.3a5.437,5.437,0,0,0,5.431,5.431h24.828a5.436,5.436,0,0,0,5.431-5.43v-2.3Z" transform="translate(-1367.032 -806.024)" fill="#e5e1e5"/>
          <path id="Trazado_25880" data-name="Trazado 25880" d="M1380.127,863.634a4.474,4.474,0,0,1-4.474-4.474v-48.9h-5.436a1.127,1.127,0,0,0-1.127,1.128v53.268a1.128,1.128,0,0,0,1.127,1.128h47.959a1.127,1.127,0,0,0,1.128-1.128v-1.023Z" transform="translate(-1364.852 -806.024)" fill="#e5e1e5"/>
          <circle id="Elipse_939" data-name="Elipse 939" cx="3.593" cy="3.593" r="3.593" transform="translate(12.512 48.126)" fill="#fd8087"/>
          <circle id="Elipse_940" data-name="Elipse 940" cx="3.194" cy="3.194" r="3.194" transform="translate(10.359 15.751)" fill="#86e8d0"/>
        </g>
        <path id="Trazado_25881" data-name="Trazado 25881" d="M1409.638,799.065h-7.485a.988.988,0,0,1-.82-.432,4.873,4.873,0,0,0-8.077,0,.985.985,0,0,1-.819.432h-7.627a2.606,2.606,0,0,0-2.606,2.607v7.7a2.606,2.606,0,0,0,2.606,2.607h24.829a2.606,2.606,0,0,0,2.606-2.607v-7.7a2.606,2.606,0,0,0-2.606-2.607Z" transform="translate(-1367.88 -796.486)" fill="#99e6fc"/>
        <path id="Trazado_25882" data-name="Trazado 25882" d="M1389.625,809.893a3.293,3.293,0,0,1-3.293-3.293v-6.761h-1.523a2.606,2.606,0,0,0-2.606,2.607v7.7a2.606,2.606,0,0,0,2.606,2.607h24.829a2.606,2.606,0,0,0,2.606-2.607v-.258h-22.619Z" transform="translate(-1367.88 -797.26)" fill="#62dbfb"/>
        <circle id="Elipse_941" data-name="Elipse 941" cx="2.612" cy="2.612" r="2.612" transform="translate(26.732 5.897)" fill="#f9f7f8"/>
        <circle id="Elipse_942" data-name="Elipse 942" cx="2.936" cy="2.936" r="2.936" transform="translate(39.573 46.699)" fill="#86e8d0"/>
      </g>
      <g id="Grupo_16604" data-name="Grupo 16604">
        <path id="Trazado_25883" data-name="Trazado 25883" d="M1384.492,812.724h2.387a1.059,1.059,0,0,0,0-2.119h-2.387a1.549,1.549,0,0,1-1.547-1.547v-7.7a1.549,1.549,0,0,1,1.547-1.547h7.627a2.045,2.045,0,0,0,1.7-.9,3.813,3.813,0,0,1,6.323,0,2.045,2.045,0,0,0,1.7.9h7.486a1.548,1.548,0,0,1,1.547,1.547v7.705a1.548,1.548,0,0,1-1.547,1.546h-17.928a1.059,1.059,0,0,0,0,2.119h17.927a3.67,3.67,0,0,0,3.666-3.665v-7.705a3.67,3.67,0,0,0-3.666-3.666h-7.451a5.932,5.932,0,0,0-9.786,0h-7.591a3.67,3.67,0,0,0-3.666,3.666v7.7a3.67,3.67,0,0,0,3.666,3.666Z" transform="translate(-1366.503 -795.109)" fill="#00223d"/>
        <path id="Trazado_25884" data-name="Trazado 25884" d="M1404.3,806.447a3.671,3.671,0,1,0-3.671,3.672A3.676,3.676,0,0,0,1404.3,806.447Zm-5.224,0a1.552,1.552,0,1,1,1.553,1.553,1.554,1.554,0,0,1-1.553-1.553Z" transform="translate(-1370.227 -796.879)" fill="#00223d"/>
        <path id="Trazado_25885" data-name="Trazado 25885" d="M1419.77,803.375h-7.906a1.059,1.059,0,0,0,0,2.118h7.906a1.123,1.123,0,0,1,1.121,1.121v59.637a1.123,1.123,0,0,1-1.121,1.121h-54.327a1.123,1.123,0,0,1-1.121-1.121V806.615a1.123,1.123,0,0,1,1.121-1.121h7.906a1.059,1.059,0,1,0,0-2.118h-7.906a3.243,3.243,0,0,0-3.24,3.24v59.637a3.244,3.244,0,0,0,3.24,3.24h54.327a3.243,3.243,0,0,0,3.24-3.24V806.615a3.243,3.243,0,0,0-3.24-3.24Z" transform="translate(-1362.203 -797.017)" fill="#00223d"/>
        <path id="Trazado_25886" data-name="Trazado 25886" d="M1423.878,864.407a1.059,1.059,0,1,0,0,2.118h7.83a1.059,1.059,0,0,0,1.06-1.059V809.943a1.059,1.059,0,0,0-1.06-1.059h-5.849a1.059,1.059,0,1,0,0,2.118h4.79v53.405Z" transform="translate(-1376.197 -798.289)" fill="#00223d"/>
        <path id="Trazado_25887" data-name="Trazado 25887" d="M1374.62,808.884h-5.849a1.059,1.059,0,0,0-1.059,1.059v55.523a1.059,1.059,0,0,0,1.059,1.059h37.87a1.059,1.059,0,0,0,0-2.118H1369.83V811h4.79a1.059,1.059,0,1,0,0-2.118Z" transform="translate(-1363.475 -798.289)" fill="#00223d"/>
        <path id="Trazado_25888" data-name="Trazado 25888" d="M1402.678,829.851a1.059,1.059,0,0,0,1.113,1.8c.521-.322,1.051-.628,1.571-.907l1.7-.912-.211.9a1.059,1.059,0,0,0,.788,1.274,1.016,1.016,0,0,0,.244.029,1.059,1.059,0,0,0,1.03-.816l.813-3.449a1.059,1.059,0,0,0-.788-1.274l-3.161-.745a1.059,1.059,0,1,0-.486,2.062l.739.174-1.669.9c-.559.3-1.124.626-1.682.971Z" transform="translate(-1371.432 -802.177)" fill="#00223d"/>
        <path id="Trazado_25889" data-name="Trazado 25889" d="M1390.2,843.909a1.059,1.059,0,0,0-1.459.336,31.965,31.965,0,0,0-2.276,4.352,1.059,1.059,0,1,0,1.947.834,29.915,29.915,0,0,1,2.124-4.062,1.059,1.059,0,0,0-.337-1.46Z" transform="translate(-1367.785 -806.338)" fill="#00223d"/>
        <path id="Trazado_25890" data-name="Trazado 25890" d="M1393.729,840.075a1.057,1.057,0,0,0,.808-.375,29.856,29.856,0,0,1,3.559-3.54,1.059,1.059,0,0,0-1.362-1.623,31.946,31.946,0,0,0-3.812,3.793,1.059,1.059,0,0,0,.807,1.744Z" transform="translate(-1369.237 -804.155)" fill="#00223d"/>
        <path id="Trazado_25891" data-name="Trazado 25891" d="M1419.376,821.141l-1.554,1.574-1.574-1.554a1.059,1.059,0,1,0-1.488,1.508l1.574,1.554-1.554,1.574a1.059,1.059,0,0,0,1.507,1.488l1.555-1.574,1.574,1.554a1.059,1.059,0,1,0,1.488-1.508l-1.574-1.554,1.554-1.574a1.059,1.059,0,0,0-1.508-1.488Z" transform="translate(-1374.264 -801.046)" fill="#00223d"/>
        <path id="Trazado_25892" data-name="Trazado 25892" d="M1402.106,847.752l.852.841-.841.852a1.059,1.059,0,1,0,1.508,1.488l.842-.852.852.841a1.059,1.059,0,1,0,1.488-1.508l-.853-.841.841-.852a1.059,1.059,0,1,0-1.507-1.488l-.842.852-.852-.841a1.059,1.059,0,0,0-1.488,1.508Z" transform="translate(-1371.343 -806.839)" fill="#00223d"/>
        <path id="Trazado_25893" data-name="Trazado 25893" d="M1383.123,865.465a2.54,2.54,0,0,1,2.482,2.024,1.059,1.059,0,1,0,2.076-.424,4.667,4.667,0,0,0-3.495-3.593,29.834,29.834,0,0,1,1-7.455,1.059,1.059,0,0,0-2.047-.546,31.915,31.915,0,0,0-1.074,8,4.651,4.651,0,0,0,1.057,9.181,4.612,4.612,0,0,0,1.875-.395,1.059,1.059,0,1,0-.855-1.938,2.534,2.534,0,1,1-1.021-4.852Z" transform="translate(-1365.959 -808.863)" fill="#00223d"/>
        <path id="Trazado_25894" data-name="Trazado 25894" d="M1379.923,823.854a4.253,4.253,0,1,0,4.253,4.253A4.257,4.257,0,0,0,1379.923,823.854Zm0,6.388a2.135,2.135,0,1,1,2.135-2.134A2.137,2.137,0,0,1,1379.923,830.242Z" transform="translate(-1365.312 -801.745)" fill="#00223d"/>
        <path id="Trazado_25895" data-name="Trazado 25895" d="M1417.65,855.826a4,4,0,0,0-1,7.863c.041.731.065,1.44.052,1.8a1.061,1.061,0,0,0,.2,1.219,1.083,1.083,0,0,0,1.224.225c.7-.321.8-.922.649-3.276a3.995,3.995,0,0,0-1.124-7.828Zm0,5.872a1.877,1.877,0,1,1,1.877-1.877A1.879,1.879,0,0,1,1417.65,861.7Z" transform="translate(-1374.082 -809.127)" fill="#00223d"/>
      </g>
    </g>
  </g>
</svg>
